<svg width="24" height="24" viewBox="0 0 24 24" fill="none" xmlns="http://www.w3.org/2000/svg">
<g clip-path="url(#clip0_1133_6)">
<path d="M12 0C12.2156 0 12.4313 0.046875 12.6281 0.135937L21.4547 3.88125C22.486 4.31719 23.2547 5.33437 23.25 6.5625C23.2266 11.2125 21.3141 19.7203 13.2375 23.5875C12.4547 23.9625 11.5453 23.9625 10.7625 23.5875C2.68596 19.7203 0.773459 11.2125 0.750021 6.5625C0.745334 5.33437 1.51408 4.31719 2.54533 3.88125L11.3766 0.135937C11.5688 0.046875 11.7844 0 12 0Z" fill="#EF5350"/>
</g>
<g clip-path="url(#clip1_1133_6)">
<path d="M14.6063 15.668L8.33203 9.39375C7.80703 10.1273 7.5 11.0273 7.5 12C7.5 14.4844 9.51562 16.5 12 16.5C12.9727 16.5 13.8727 16.193 14.6063 15.668ZM15.668 14.6063C16.193 13.8727 16.5 12.9727 16.5 12C16.5 9.51562 14.4844 7.5 12 7.5C11.0273 7.5 10.1273 7.80703 9.39375 8.33203L15.668 14.6063ZM6 12C6 10.4087 6.63214 8.88258 7.75736 7.75736C8.88258 6.63214 10.4087 6 12 6C13.5913 6 15.1174 6.63214 16.2426 7.75736C17.3679 8.88258 18 10.4087 18 12C18 13.5913 17.3679 15.1174 16.2426 16.2426C15.1174 17.3679 13.5913 18 12 18C10.4087 18 8.88258 17.3679 7.75736 16.2426C6.63214 15.1174 6 13.5913 6 12Z" fill="white"/>
</g>
<defs>
<clipPath id="clip0_1133_6">
<rect width="24" height="24" fill="white"/>
</clipPath>
<clipPath id="clip1_1133_6">
<rect width="12" height="12" fill="white" transform="translate(6 6)"/>
</clipPath>
</defs>
</svg>
